<svg xmlns="http://www.w3.org/2000/svg" width="500" height="250" viewBox="0 0 500 250">
  <defs>
    <style>
      .a, .i {
        fill: #fff;
      }

      .b, .c, .d, .e, .h {
        fill: none;
      }

      .b {
        stroke: #f8f8f8;
      }

      .b, .c, .d, .e, .f, .h, .i {
        stroke-miterlimit: 19.2;
      }

      .c {
        stroke: #f0f0f0;
      }

      .d, .e {
        stroke: #ddd;
      }

      .e {
        stroke-width: 2px;
      }

      .f {
        fill: #fafafa;
      }

      .f, .h {
        stroke: #404040;
      }

      .g {
        fill: #404040;
      }

      .i {
        stroke: #aaa;
      }
    </style>
  </defs>
  <g>
    <rect class="a" y="-50" width="500" height="300"/>
    <g>
      <g>
        <line class="b" x1="5" y1="-50" x2="5" y2="250"/>
        <line class="b" x1="10" y1="-50" x2="10" y2="250"/>
        <line class="b" x1="15" y1="-50" x2="15" y2="250"/>
        <line class="b" x1="20" y1="-50" x2="20" y2="250"/>
        <line class="b" x1="30" y1="-50" x2="30" y2="250"/>
        <line class="b" x1="35" y1="-50" x2="35" y2="250"/>
        <line class="b" x1="40" y1="-50" x2="40" y2="250"/>
        <line class="b" x1="45" y1="-50" x2="45" y2="250"/>
        <line class="b" x1="55" y1="-50" x2="55" y2="250"/>
        <line class="b" x1="60" y1="-50" x2="60" y2="250"/>
        <line class="b" x1="65" y1="-50" x2="65" y2="250"/>
        <line class="b" x1="70" y1="-50" x2="70" y2="250"/>
        <line class="b" x1="80" y1="-50" x2="80" y2="250"/>
        <line class="b" x1="85" y1="-50" x2="85" y2="250"/>
        <line class="b" x1="90" y1="-50" x2="90" y2="250"/>
        <line class="b" x1="95" y1="-50" x2="95" y2="250"/>
        <line class="b" x1="105" y1="-50" x2="105" y2="250"/>
        <line class="b" x1="110" y1="-50" x2="110" y2="250"/>
        <line class="b" x1="115" y1="-50" x2="115" y2="250"/>
        <line class="b" x1="120" y1="-50" x2="120" y2="250"/>
        <line class="b" x1="130" y1="-50" x2="130" y2="250"/>
        <line class="b" x1="135" y1="-50" x2="135" y2="250"/>
        <line class="b" x1="140" y1="-50" x2="140" y2="250"/>
        <line class="b" x1="145" y1="-50" x2="145" y2="250"/>
        <line class="b" x1="155" y1="-50" x2="155" y2="250"/>
        <line class="b" x1="160" y1="-50" x2="160" y2="250"/>
        <line class="b" x1="165" y1="-50" x2="165" y2="250"/>
        <line class="b" x1="170" y1="-50" x2="170" y2="250"/>
        <line class="b" x1="180" y1="-50" x2="180" y2="250"/>
        <line class="b" x1="185" y1="-50" x2="185" y2="250"/>
        <line class="b" x1="190" y1="-50" x2="190" y2="250"/>
        <line class="b" x1="195" y1="-50" x2="195" y2="250"/>
        <line class="b" x1="205" y1="-50" x2="205" y2="250"/>
        <line class="b" x1="210" y1="-50" x2="210" y2="250"/>
        <line class="b" x1="215" y1="-50" x2="215" y2="250"/>
        <line class="b" x1="220" y1="-50" x2="220" y2="250"/>
        <line class="b" x1="230" y1="-50" x2="230" y2="250"/>
        <line class="b" x1="235" y1="-50" x2="235" y2="250"/>
        <line class="b" x1="240" y1="-50" x2="240" y2="250"/>
        <line class="b" x1="245" y1="-50" x2="245" y2="250"/>
        <line class="b" x1="255" y1="-50" x2="255" y2="250"/>
        <line class="b" x1="260" y1="-50" x2="260" y2="250"/>
        <line class="b" x1="265" y1="-50" x2="265" y2="250"/>
        <line class="b" x1="270" y1="-50" x2="270" y2="250"/>
        <line class="b" x1="280" y1="-50" x2="280" y2="250"/>
        <line class="b" x1="285" y1="-50" x2="285" y2="250"/>
        <line class="b" x1="290" y1="-50" x2="290" y2="250"/>
        <line class="b" x1="295" y1="-50" x2="295" y2="250"/>
        <line class="b" x1="305" y1="-50" x2="305" y2="250"/>
        <line class="b" x1="310" y1="-50" x2="310" y2="250"/>
        <line class="b" x1="315" y1="-50" x2="315" y2="250"/>
        <line class="b" x1="320" y1="-50" x2="320" y2="250"/>
        <line class="b" x1="330" y1="-50" x2="330" y2="250"/>
        <line class="b" x1="335" y1="-50" x2="335" y2="250"/>
        <line class="b" x1="340" y1="-50" x2="340" y2="250"/>
        <line class="b" x1="345" y1="-50" x2="345" y2="250"/>
        <line class="b" x1="355" y1="-50" x2="355" y2="250"/>
        <line class="b" x1="360" y1="-50" x2="360" y2="250"/>
        <line class="b" x1="365" y1="-50" x2="365" y2="250"/>
        <line class="b" x1="370" y1="-50" x2="370" y2="250"/>
        <line class="b" x1="380" y1="-50" x2="380" y2="250"/>
        <line class="b" x1="385" y1="-50" x2="385" y2="250"/>
        <line class="b" x1="390" y1="-50" x2="390" y2="250"/>
        <line class="b" x1="395" y1="-50" x2="395" y2="250"/>
        <line class="b" x1="405" y1="-50" x2="405" y2="250"/>
        <line class="b" x1="410" y1="-50" x2="410" y2="250"/>
        <line class="b" x1="415" y1="-50" x2="415" y2="250"/>
        <line class="b" x1="420" y1="-50" x2="420" y2="250"/>
        <line class="b" x1="430" y1="-50" x2="430" y2="250"/>
        <line class="b" x1="435" y1="-50" x2="435" y2="250"/>
        <line class="b" x1="440" y1="-50" x2="440" y2="250"/>
        <line class="b" x1="445" y1="-50" x2="445" y2="250"/>
        <line class="b" x1="455" y1="-50" x2="455" y2="250"/>
        <line class="b" x1="460" y1="-50" x2="460" y2="250"/>
        <line class="b" x1="465" y1="-50" x2="465" y2="250"/>
        <line class="b" x1="470" y1="-50" x2="470" y2="250"/>
        <line class="b" x1="480" y1="-50" x2="480" y2="250"/>
        <line class="b" x1="485" y1="-50" x2="485" y2="250"/>
        <line class="b" x1="490" y1="-50" x2="490" y2="250"/>
        <line class="b" x1="495" y1="-50" x2="495" y2="250"/>
        <line class="b" y1="5" x2="500" y2="5"/>
        <line class="b" y1="10" x2="500" y2="10"/>
        <line class="b" y1="15" x2="500" y2="15"/>
        <line class="b" y1="20" x2="500" y2="20"/>
        <line class="b" y1="30" x2="500" y2="30"/>
        <line class="b" y1="35" x2="500" y2="35"/>
        <line class="b" y1="40" x2="500" y2="40"/>
        <line class="b" y1="45" x2="500" y2="45"/>
        <line class="b" y1="55" x2="500" y2="55"/>
        <line class="b" y1="60" x2="500" y2="60"/>
        <line class="b" y1="65" x2="500" y2="65"/>
        <line class="b" y1="70" x2="500" y2="70"/>
        <line class="b" y1="80" x2="500" y2="80"/>
        <line class="b" y1="85" x2="500" y2="85"/>
        <line class="b" y1="90" x2="500" y2="90"/>
        <line class="b" y1="95" x2="500" y2="95"/>
        <line class="b" y1="105" x2="500" y2="105"/>
        <line class="b" y1="110" x2="500" y2="110"/>
        <line class="b" y1="115" x2="500" y2="115"/>
        <line class="b" y1="120" x2="500" y2="120"/>
        <line class="b" y1="130" x2="500" y2="130"/>
        <line class="b" y1="135" x2="500" y2="135"/>
        <line class="b" y1="140" x2="500" y2="140"/>
        <line class="b" y1="145" x2="500" y2="145"/>
        <line class="b" y1="155" x2="500" y2="155"/>
        <line class="b" y1="160" x2="500" y2="160"/>
        <line class="b" y1="165" x2="500" y2="165"/>
        <line class="b" y1="170" x2="500" y2="170"/>
        <line class="b" y1="180" x2="500" y2="180"/>
        <line class="b" y1="185" x2="500" y2="185"/>
        <line class="b" y1="190" x2="500" y2="190"/>
        <line class="b" y1="195" x2="500" y2="195"/>
        <line class="b" y1="205" x2="500" y2="205"/>
        <line class="b" y1="210" x2="500" y2="210"/>
        <line class="b" y1="215" x2="500" y2="215"/>
        <line class="b" y1="220" x2="500" y2="220"/>
        <line class="b" y1="230" x2="500" y2="230"/>
        <line class="b" y1="235" x2="500" y2="235"/>
        <line class="b" y1="240" x2="500" y2="240"/>
        <line class="b" y1="245" x2="500" y2="245"/>
      </g>
      <g>
        <line class="c" x1="25" y1="-50" x2="25" y2="250"/>
        <line class="c" x1="75" y1="-50" x2="75" y2="250"/>
        <line class="c" x1="125" y1="-50" x2="125" y2="250"/>
        <line class="c" x1="175" y1="-50" x2="175" y2="250"/>
        <line class="c" x1="225" y1="-50" x2="225" y2="250"/>
        <line class="c" x1="275" y1="-50" x2="275" y2="250"/>
        <line class="c" x1="325" y1="-50" x2="325" y2="250"/>
        <line class="c" x1="375" y1="-50" x2="375" y2="250"/>
        <line class="c" x1="425" y1="-50" x2="425" y2="250"/>
        <line class="c" x1="475" y1="-50" x2="475" y2="250"/>
        <line class="c" y1="25" x2="500" y2="25"/>
        <line class="c" y1="75" x2="500" y2="75"/>
        <line class="c" y1="125" x2="500" y2="125"/>
        <line class="c" y1="175" x2="500" y2="175"/>
        <line class="c" y1="225" x2="500" y2="225"/>
      </g>
      <g>
        <line class="d" y1="-50" y2="250"/>
        <line class="d" x1="50" y1="-50" x2="50" y2="250"/>
        <line class="d" x1="100" y1="-50" x2="100" y2="250"/>
        <line class="d" x1="150" y1="-50" x2="150" y2="250"/>
        <line class="d" x1="200" y1="-50" x2="200" y2="250"/>
        <line class="d" x1="250" y1="-50" x2="250" y2="250"/>
        <line class="d" x1="300" y1="-50" x2="300" y2="250"/>
        <line class="d" x1="350" y1="-50" x2="350" y2="250"/>
        <line class="d" x1="400" y1="-50" x2="400" y2="250"/>
        <line class="d" x1="450" y1="-50" x2="450" y2="250"/>
        <line class="d" x1="500" y1="-50" x2="500" y2="250"/>
        <line class="d" x2="500"/>
        <line class="d" y1="50" x2="500" y2="50"/>
        <line class="d" y1="100" x2="500" y2="100"/>
        <line class="d" y1="150" x2="500" y2="150"/>
        <line class="d" y1="200" x2="500" y2="200"/>
        <line class="d" y1="250" x2="500" y2="250"/>
      </g>
    </g>
  </g>
  <g>
    <rect class="e" width="500" height="250"/>
    <polygon class="f" points="50 200 100 50 225 50 300 200 50 200"/>
    <path class="g" d="M166.55,132q-.14-.14-.14-.22a1.7146,1.7146,0,0,1,.07-.34.949.949,0,0,1,.11-.3l.08-.06h.28a2.4256,2.4256,0,0,0,2.04-1q.12-.12,3.63-6.11t3.55-6.05a.4221.4221,0,0,1,.19-.21,1.949,1.949,0,0,1,.45-.03h.34a1.08,1.08,0,0,1,.12.2l.56,6.46q.5595,6.4607.6,6.52.1.22,1.3.22.22,0,.31.01a.2688.2688,0,0,1,.14.05.1716.1716,0,0,1,.05.14,2.1145,2.1145,0,0,1-.06.28,1.2411,1.2411,0,0,1-.11.37c-.0337.0469-.1236.07-.27.07q-.36,0-1.19-.02t-1.33-.02q-1.88,0-2.46.04h-.24a.4723.4723,0,0,1-.13-.17,1.8353,1.8353,0,0,1,.05-.37,1.616,1.616,0,0,1,.12-.32l.08-.06h.4q1.08-.04,1.28-.34l-.24-3h-4.76l-.68,1.16a13.9249,13.9249,0,0,0-.74,1.3.6689.6689,0,0,0-.08.3q0,.5.92.58c.253,0,.38.0669.38.2a.96.96,0,0,1-.06.28,1.0738,1.0738,0,0,1-.12.36c-.04.0537-.1265.08-.26.08q-.3406,0-1.08-.02t-1.12-.02q-1.42,0-1.82.04Zm9.48-5.2q0-.22-.25-3.12t-.27-2.92l-.54.86q-.32.54-1.26,2.14l-1.8,3.04,2.06.02Q176.03,126.82,176.03,126.8Z"/>
    <g>
      <g>
        <line class="h" x1="25" y1="50" x2="25" y2="200"/>
        <rect class="g" x="21.75" y="49.5" width="6.5" height="1"/>
        <rect class="g" x="21.75" y="199.5" width="6.5" height="1"/>
      </g>
      <rect class="a" x="10" y="110" width="30" height="30"/>
      <path class="g" d="M27.28,131.6258a1.7949,1.7949,0,0,1-1.28-.47,1.5864,1.5864,0,0,1-.5-1.21,2.8094,2.8094,0,0,1,.2-.88,23.6047,23.6047,0,0,0,1.2-3.78,3.9807,3.9807,0,0,0,.06-.76q0-1.18-.98-1.18a2.4,2.4,0,0,0-.52.04,3.81,3.81,0,0,0-2.36,1.92l-.14.26-.68,2.7q-.64,2.6-.74,2.84a.9034.9034,0,0,1-.88.54.8481.8481,0,0,1-.47-.15.4481.4481,0,0,1-.23-.39q0-.24,2.94-12a.3606.3606,0,0,0-.12-.32,3.017,3.017,0,0,0-.8-.1H21.56a.5624.5624,0,0,1-.13-.16,2.062,2.062,0,0,1,.0508-.38c.0664-.2534.1523-.38.26-.38q.019,0,1.45-.11t1.4493-.11q.24,0,.24.18,0,.2205-.72,3.02-.76,2.96-.76,3.02c0,.0268.0459-.0064.14-.1a3.768,3.768,0,0,1,2.6-1.08,2.6951,2.6951,0,0,1,1.7607.54,1.9234,1.9234,0,0,1,.6592,1.58,3.9872,3.9872,0,0,1-.06.76,25.1427,25.1427,0,0,1-1.1,3.54,4.7749,4.7749,0,0,0-.36,1.42.7244.7244,0,0,0,.1.38.3688.3688,0,0,0,.3007.1,1.3689,1.3689,0,0,0,1.05-.61,4.48,4.48,0,0,0,.77-1.63.5112.5112,0,0,1,.12-.26.748.748,0,0,1,.32-.04c.2529.04.3867.0932.3994.16,0,.0132-.0264.1133-.08.3a4.5635,4.5635,0,0,1-1.02,1.94A2.1032,2.1032,0,0,1,27.28,131.6258Z"/>
    </g>
    <g>
      <line class="h" x1="50" y1="225" x2="300" y2="225"/>
      <rect class="g" x="49.5" y="221.75" width="1" height="6.5"/>
      <rect class="g" x="299.5" y="221.75" width="1" height="6.5"/>
    </g>
    <g>
      <line class="h" x1="100" y1="25" x2="225" y2="25"/>
      <rect class="g" x="99.5" y="21.75" width="1" height="6.5"/>
      <rect class="g" x="224.5" y="21.75" width="1" height="6.5"/>
    </g>
    <rect class="a" x="160" y="210" width="30" height="30"/>
    <rect class="a" x="150" y="10" width="30" height="30"/>
    <path class="g" d="M172.78,217.34q.019,0,1.45-.11t1.4492-.11q.24,0,.24.18t-.68,2.86q-.1611.68-.3505,1.4c-.127.48-.2227.84-.29,1.08l-.08.38q0,.06.12-.06a3.7171,3.7171,0,0,1,1.52-.76,3.145,3.145,0,0,1,1,0,2.7726,2.7726,0,0,1,1.66,1.08,3.4772,3.4772,0,0,1,.62,2.12,5.952,5.952,0,0,1-1.57,4.03,4.527,4.527,0,0,1-3.41,1.79,2.4258,2.4258,0,0,1-1.1-.26A2.8986,2.8986,0,0,1,171.8,228a5.4274,5.4274,0,0,1,.12-1.14q0-.02,1-4.1l1.02-4.08q.04-.28-.1308-.35a1.6311,1.6311,0,0,0-.5694-.07h-.2207a.9937.9937,0,0,1-.48-.06c-.08-.0669-.0869-.2265-.02-.48a.714.714,0,0,1,.1407-.32A.1729.1729,0,0,1,172.78,217.34Zm4.9394,7.16q0-1.6-1.22-1.6a1.2928,1.2928,0,0,0-.13.01c-.06.0068-.0967.01-.11.01a3.4516,3.4516,0,0,0-1.96,1.44,1.26,1.26,0,0,0-.1.12l-.06.08q0,.02-.35,1.43t-.39,1.61a5.943,5.943,0,0,0-.12,1.12,1.9591,1.9591,0,0,0,.48,1.44,1.0848,1.0848,0,0,0,.8.32,1.9918,1.9918,0,0,0,1.3408-.64,3.5342,3.5342,0,0,0,.81-1.13,12.06,12.06,0,0,0,.65-2.09A9.8629,9.8629,0,0,0,177.72,224.5Z"/>
    <path class="g" d="M169.45,28.1751a1.77,1.77,0,0,1,.24.01.1855.1855,0,0,1,.1.05.165.165,0,0,1,.04.12,1.8212,1.8212,0,0,1-.0606.3,5.2192,5.2192,0,0,1-1.0791,2.32,1.9946,1.9946,0,0,1-.6406.42,2.15,2.15,0,0,1-.48.04,1.8063,1.8063,0,0,1-1.7607-.98,1.51,1.51,0,0,0-.1-.24c-.0137-.0132-.04-.0064-.08.02-.0264.0269-.0537.0532-.08.08a4.0954,4.0954,0,0,1-1.8994,1.1,3.8813,3.8813,0,0,1-.5.02,2.6547,2.6547,0,0,1-2.1807-1.1,3.8958,3.8958,0,0,1-.6-2.24,3.3049,3.3049,0,0,1,.02-.44,6.09,6.09,0,0,1,.83-2.45,6.3483,6.3483,0,0,1,1.65-1.89,3.9207,3.9207,0,0,1,2.44-.9,2.3076,2.3076,0,0,1,1.8008.98.9991.9991,0,0,1,.92-.6.7159.7159,0,0,1,.46.16.4934.4934,0,0,1,.2.4q0,.26-.75,3.21a30.5287,30.5287,0,0,0-.75,3.31q0,.84.56.84a.87.87,0,0,0,.4-.18,4.5416,4.5416,0,0,0,.8193-1.92q.12-.4.2-.42a.585.585,0,0,1,.2-.02Zm-7.38.94a1.9707,1.9707,0,0,0,.31,1.16,1.0421,1.0421,0,0,0,.91.44,2.1488,2.1488,0,0,0,1.24-.48,4.1816,4.1816,0,0,0,.6494-.6,3.5429,3.5429,0,0,0,.49-.6q.04-.0791.55-2.14t.51-2.22a1.6932,1.6932,0,0,0-.22-.68,1.3708,1.3708,0,0,0-1.26-.86,1.8479,1.8479,0,0,0-1.41.68,4.7121,4.7121,0,0,0-.93,1.56,15.9715,15.9715,0,0,0-.82,3.28c0,.04-.003.1133-.01.22S162.07,29.0619,162.07,29.1151Z"/>
    <g>
      <rect class="i" x="325" y="87.5" width="150" height="75"/>
      <g>
        <path class="g" d="M343.4266,131.373q0,.4887.9366.57.3664,0,.3665.224,0,.02-.0408.2647a1.0955,1.0955,0,0,1-.1221.3665.3233.3233,0,0,1-.2647.0815h-.2444q-.2036,0-.6922-.02t-1.3031-.02q-1.4457,0-1.8529.0408h-.1629q-.1425-.1427-.1425-.224a.9477.9477,0,0,1,.2647-.7127h.285a2.4705,2.4705,0,0,0,2.0769-1.018q.1221-.1222,3.6853-6.21t3.6243-6.1694a.5189.5189,0,0,1,.4887-.2443h.509a1.0989,1.0989,0,0,1,.1222.2036l.57,6.5766q.57,6.5768.6108,6.6378.1019.224,1.3235.2239.5091,0,.509.2037a2.1534,2.1534,0,0,1-.0611.285,1.4256,1.4256,0,0,1-.1018.3665q-.0407.061-.285.0815h-.2851q-.2239,0-.7941-.02t-1.4863-.02q-1.914,0-2.5044.0408h-.2444q-.1221-.1222-.1221-.1833t.0407-.3665a1.6686,1.6686,0,0,1,.1221-.3258l.0815-.0611h.4072q1.0995-.061,1.3031-.3461l-.2443-3.0542h-4.846l-.6922,1.181A6.6454,6.6454,0,0,0,343.4266,131.373Zm6.2712-3.7871q0-.2241-.2443-3.1764t-.2851-2.9727l-.55.8755q-.3256.55-1.2827,2.1787l-1.8325,3.0949,2.0972.02Q349.6978,127.6062,349.6978,127.5859Z"/>
        <path class="g" d="M361.2588,125.8144a.4436.4436,0,0,1,.2851-.4072h12.97a.4736.4736,0,0,1,.3054.4072.4618.4618,0,0,1-.2851.3869l-6.4748.02h-6.4749A.4036.4036,0,0,1,361.2588,125.8144Zm0,3.95a.4036.4036,0,0,1,.3258-.4072h12.95q.2852.2035.2851.4072a.4451.4451,0,0,1-.3054.4072h-12.97A.4435.4435,0,0,1,361.2588,129.7645Z"/>
        <g>
          <g>
            <path class="g" d="M388.0093,113.3331a16.7525,16.7525,0,0,1,.2036-2.6674,18.6881,18.6881,0,0,1,.4683-2.1786,8.5282,8.5282,0,0,1,.7534-1.7918q.4887-.8756.7737-1.3642a5.4128,5.4128,0,0,1,.8552-1.0588q.57-.57.6719-.6922a3.6707,3.6707,0,0,1,.509-.4276h.3462q.285,0,.285.1832a1.6414,1.6414,0,0,1-.3461.4276,9.2487,9.2487,0,0,0-.8348,1.0792,14.0752,14.0752,0,0,0-.9977,1.751,11.5833,11.5833,0,0,0-.8552,2.81,20.5546,20.5546,0,0,0-.3461,3.93,20.2358,20.2358,0,0,0,.3461,3.9093,13.23,13.23,0,0,0,.8348,2.83,9.2285,9.2285,0,0,0,.9977,1.7511q.5091.6719.8552,1.0791a4.5824,4.5824,0,0,1,.3461.4276q0,.1832-.3054.1832h-.3258l-.57-.4886a10.0479,10.0479,0,0,1-2.7894-4.3166A16.6469,16.6469,0,0,1,388.0093,113.3331Z"/>
            <path class="g" d="M394.6878,115.2266a6.017,6.017,0,0,1,1.5474-3.9093,4.5567,4.5567,0,0,1,3.4818-1.8732,2.3081,2.3081,0,0,1,1.8325.9977,1.0189,1.0189,0,0,1,.9366-.6109.7283.7283,0,0,1,.4683.1629.5016.5016,0,0,1,.2036.4073q0,.2646-.7533,3.2577t-.7738,3.38a1.0887,1.0887,0,0,0,.1426.6719.598.598,0,0,0,.4275.1833.8855.8855,0,0,0,.4073-.1833,4.6178,4.6178,0,0,0,.8348-1.9547q.1221-.4071.2036-.4275a.5942.5942,0,0,1,.2036-.02h.0814q.3868,0,.3869.1832a3.2305,3.2305,0,0,1-.1018.55,6.3941,6.3941,0,0,1-.4072,1.1,3.4692,3.4692,0,0,1-.6516,1.0181,2.0134,2.0134,0,0,1-.6515.4275,2.167,2.167,0,0,1-.4887.0408,2.0806,2.0806,0,0,1-1.1606-.3055,1.5628,1.5628,0,0,1-.6108-.6312l-.1222-.3054c-.0136-.0135-.0407-.0068-.0814.02l-.0815.0814a3.57,3.57,0,0,1-2.4433,1.14,2.779,2.779,0,0,1-1.9751-.8145A3.4311,3.4311,0,0,1,394.6878,115.2266Zm6.4748-3.4817a1.8415,1.8415,0,0,0-.1018-.448,1.9371,1.9371,0,0,0-.4683-.7126,1.3015,1.3015,0,0,0-.9366-.4072,1.954,1.954,0,0,0-1.3642.6312,4.2607,4.2607,0,0,0-1.0181,1.6492,16.26,16.26,0,0,0-.8348,3.3393v.2239a1.0852,1.0852,0,0,1-.02.2444,1.71,1.71,0,0,0,.3665,1.2624,1.3117,1.3117,0,0,0,.8755.3665,2.299,2.299,0,0,0,1.5271-.672,3.4229,3.4229,0,0,0,.8959-1.0384q.0406-.0815.55-2.1786T401.1626,111.7449Z"/>
            <path class="g" d="M410.4514,113.5978v-.2647a.4437.4437,0,0,1,.285-.4073h6.088v-3.0541l.02-3.0542q.2036-.2647.3868-.2647a.4453.4453,0,0,1,.4073.3054v6.0676h6.0676a.4242.4242,0,0,1,0,.8145h-6.0676v6.0676q-.1629.285-.3665.2851h-.0815a.3948.3948,0,0,1-.3665-.2851V113.74h-6.088a.4435.4435,0,0,1-.285-.4072Z"/>
            <path class="g" d="M431.1627,105.25a1.6175,1.6175,0,0,1,.0815-.4683q.0815-.2648.2443-.2647.02,0,1.466-.1018t1.4864-.1222q.2443,0,.2443.1833t-.6923,2.9116q-.1629.6923-.3461,1.4253t-.3054,1.1l-.0815.3868q0,.0612.1222-.061a3.2257,3.2257,0,0,1,2.0565-.8145,2.5119,2.5119,0,0,1,2.0361.9366,3.6714,3.6714,0,0,1,.7941,2.3619,6.0513,6.0513,0,0,1-1.6086,4.0926,4.613,4.613,0,0,1-3.4614,1.8325,2.6648,2.6648,0,0,1-1.8528-.7737,3.3332,3.3332,0,0,1-.8552-2.5044v-.1833a5.9686,5.9686,0,0,1,.1629-1.1809q.1629-.7534.9977-4.0112,1.018-4.0111,1.0181-4.2554t-.7738-.2851h-.5294a.2515.2515,0,0,1-.1425-.0611A.1306.1306,0,0,1,431.1627,105.25Zm5.355,6.5563v-.1222q0-1.5068-1.242-1.5067a1.7492,1.7492,0,0,0-.7127.1629,2.6866,2.6866,0,0,0-.6719.4276q-.3054.2646-.5294.4886a2.6647,2.6647,0,0,0-.3665.448l-.1221.1629-.4276,1.751a11.7217,11.7217,0,0,0-.448,2.4841,1.9911,1.9911,0,0,0,.4887,1.466,1.1051,1.1051,0,0,0,.8145.3258,2.0278,2.0278,0,0,0,1.3642-.6516,3.4917,3.4917,0,0,0,.8144-1.14,13.571,13.571,0,0,0,.6719-2.1379A9.9993,9.9993,0,0,0,436.5177,111.806Z"/>
            <path class="g" d="M439.633,103.1728l.0814-.02h.448l.57.4887a10.0487,10.0487,0,0,1,2.7895,4.3165,16.65,16.65,0,0,1,.8755,5.3754A17.0033,17.0033,0,0,1,444.1939,116a17.5281,17.5281,0,0,1-.4683,2.1786,9.1719,9.1719,0,0,1-.7534,1.7918q-.4887.8959-.7737,1.3642a6.1981,6.1981,0,0,1-.8348,1.0384q-.55.57-.6516.6719t-.4683.3869l-.0814.0814h-.4683a.1193.1193,0,0,1-.1018-.0611.477.477,0,0,1-.0611-.1832q.02-.02.2239-.2647,3.156-3.2781,3.156-9.6715t-3.156-9.6716q-.2036-.2444-.2239-.2647A.2394.2394,0,0,1,439.633,103.1728Z"/>
            <path class="g" d="M449.1213,104.5167q.02,0,1.466-.1018t1.4863-.1222q.2443,0,.2444.1833,0,.224-.733,3.0745-.7738,3.0135-.7738,3.0745,0,.0408.1426-.1018a3.9375,3.9375,0,0,1,2.6469-1.1,2.71,2.71,0,0,1,1.7714.55,2.0109,2.0109,0,0,1,.6923,1.6085,10.91,10.91,0,0,1-.7737,3.2171,13.37,13.37,0,0,0-.7737,2.6062.74.74,0,0,0,.1018.3869.3753.3753,0,0,0,.3054.1018,1.3717,1.3717,0,0,0,1.0588-.6109,4.7844,4.7844,0,0,0,.7941-1.67.52.52,0,0,1,.1221-.2647.7576.7576,0,0,1,.3258-.0407q.4072,0,.4072.1629,0,.02-.0814.3054a4.6568,4.6568,0,0,1-1.0384,1.975,2.0511,2.0511,0,0,1-1.6493.8756h-.1018a1.6462,1.6462,0,0,1-1.3846-.55,1.8619,1.8619,0,0,1-.4275-1.1606,14.2771,14.2771,0,0,1,.733-2.4026,11.1235,11.1235,0,0,0,.7533-3.1152q0-1.2013-.8959-1.2014h-.1018a3.5129,3.5129,0,0,0-2.932,1.9954l-.1425.2647-.6923,2.7488q-.6516,2.6469-.7533,2.8913a.9191.9191,0,0,1-.8959.55.7054.7054,0,0,1-.4887-.1832.6033.6033,0,0,1-.224-.3665q0-.2852,1.4864-6.19l1.5067-6.0269q0-.2647-.1425-.3258a3.4134,3.4134,0,0,0-.7941-.1018h-.4276q-.1221-.1221-.1222-.1629t.0408-.3869Q448.9583,104.5167,449.1213,104.5167Z"/>
          </g>
          <path class="g" d="M419.2067,138.1126a1.1132,1.1132,0,0,1-.8756-.3665,1.301,1.301,0,0,1-.3257-.8959,3.3923,3.3923,0,0,1,1.0791-2.5044,3.6846,3.6846,0,0,1,2.6877-1.0588,4.4035,4.4035,0,0,1,3.0949,1.14A3.8877,3.8877,0,0,1,426.13,137.38a3.6106,3.6106,0,0,1-.4073,1.67,5.7571,5.7571,0,0,1-.9773,1.3845q-.57.5906-1.6289,1.5068-.733.6312-2.0361,1.8732l-1.2013,1.14,1.5474.02a24.454,24.454,0,0,0,3.4-.1018,5.5157,5.5157,0,0,0,.4887-1.8122v-.061h.8145v.061q-.02.0612-.2647,1.8529a15.17,15.17,0,0,1-.3055,1.8732v.0611h-7.5539v-.6312a.52.52,0,0,1,.1221-.3054q.1223-.1629.6109-.7126.59-.6516,1.018-1.14.1833-.2035.6923-.7533t.6923-.7534q.1832-.2035.59-.6719t.57-.6923q.1629-.2239.4683-.6108a3.4776,3.4776,0,0,0,.4276-.6516q.1221-.2646.3054-.59a2.6326,2.6326,0,0,0,.2647-.6515q.0815-.3258.1425-.6108a3.2444,3.2444,0,0,0,.0611-.672,3.6306,3.6306,0,0,0-.6923-2.2193,2.3089,2.3089,0,0,0-1.975-.9366,2.0493,2.0493,0,0,0-1.181.3461,2.453,2.453,0,0,0-.7126.6719,1.4493,1.4493,0,0,0-.2036.3869q0,.02.1018.02a1.2766,1.2766,0,0,1,.7533.2851,1.0861,1.0861,0,0,1,.3869.9366,1.2,1.2,0,0,1-.3258.8552A1.2609,1.2609,0,0,1,419.2067,138.1126Z"/>
          <rect class="g" x="384.0593" y="127.1786" width="76.0367" height="1.2217"/>
        </g>
      </g>
    </g>
  </g>
</svg>
